HIERARCHY
ROOT Hip
{
    OFFSET 0.0 0.0 0.0
    CHANNELS 6 Xposition Yposition Zposition Zrotation Xrotation Yrotation
    JOINT RightHip
    {
        OFFSET -6.5048438493382275 0.0 0.0
        CHANNELS 3 Zrotation Xrotation Yrotation
        JOINT RightKnee
        {
            OFFSET 0.0 0.0 -22.918288332674482
            CHANNELS 3 Zrotation Xrotation Yrotation
            JOINT RightAnkle
            {
                OFFSET 0.0 0.0 -28.074050074747056
                CHANNELS 3 Zrotation Xrotation Yrotation
                End Site
                {
                    OFFSET 0.0 -11.229620029898822 0.0
                }
            }
        }
    }
    JOINT LeftHip
    {
        OFFSET 6.5048438493382275 0.0 0.0
        CHANNELS 3 Zrotation Xrotation Yrotation
        JOINT LeftKnee
        {
            OFFSET 0.0 0.0 -22.918288332674482
            CHANNELS 3 Zrotation Xrotation Yrotation
            JOINT LeftAnkle
            {
                OFFSET 0.0 0.0 -28.074050074747056
                CHANNELS 3 Zrotation Xrotation Yrotation
                End Site
                {
                    OFFSET 0.0 -11.229620029898822 0.0
                }
            }
        }
    }
    JOINT Spine
    {
        OFFSET 0.0 0.0 18.9069506850104
        CHANNELS 3 Zrotation Xrotation Yrotation
        JOINT Thorax
        {
            OFFSET 0.0 0.0 22.18817311635927
            CHANNELS 3 Zrotation Xrotation Yrotation
            JOINT Neck
            {
                OFFSET 0.0 0.0 2.9193518515498713
                CHANNELS 3 Zrotation Xrotation Yrotation
                JOINT Head
                {
                    OFFSET 0.0 0.0 9.008971225794339
                    CHANNELS 3 Zrotation Xrotation Yrotation
                    End Site
                    {
                        OFFSET -3.603588490317735 0.0 0.0
                    }
                }
            }
            JOINT LeftShoulder
            {
                OFFSET 10.808036129924197 0.0 0.0
                CHANNELS 3 Zrotation Xrotation Yrotation
                JOINT LeftElbow
                {
                    OFFSET 21.433674900611642 0.0 0.0
                    CHANNELS 3 Zrotation Xrotation Yrotation
                    JOINT LeftWrist
                    {
                        OFFSET 12.022258419397348 0.0 0.0
                        CHANNELS 3 Zrotation Xrotation Yrotation
                        End Site
                        {
                            OFFSET 4.808903367758939 0.0 0.0
                        }
                    }
                }
            }
            JOINT RightShoulder
            {
                OFFSET -10.808036129924197 0.0 0.0
                CHANNELS 3 Zrotation Xrotation Yrotation
                JOINT RightElbow
                {
                    OFFSET -21.433674900611642 0.0 0.0
                    CHANNELS 3 Zrotation Xrotation Yrotation
                    JOINT RightWrist
                    {
                        OFFSET -12.022258419397348 0.0 0.0
                        CHANNELS 3 Zrotation Xrotation Yrotation
                        End Site
                        {
                            OFFSET -4.808903367758939 0.0 0.0
                        }
                    }
                }
            }
            JOINT Nose
            {
                OFFSET 0.0 0.0 8.69212130950017
                CHANNELS 3 Zrotation Xrotation Yrotation
                End Site
                {
                    OFFSET -3.4768485238000677 0.0 0.0
                }
            }
        }
    }
}
MOTION
Frames: 12
Frame Time: 0.03333333333333333
16.38870603533338 41.81232737404476 8.053797105772533 -21.623572166447193 0.2724052172342572 -1.0326440679584616 -2.1398536423647228 -9.063195629079868 7.8647057577689194 5.561051532089421 18.582642399328844 -15.042995380264705 0.0 0.0 3.975693351829396e-16 -0.2132072310195762 -12.954842226375758 -11.168495951547806 -2.7078912999165476 22.56465769402677 17.012459786017097 0.0 0.0 0.0 -3.1817978530936267e-15 3.112673079838746 2.555834837303854e-18 -1.1418334415499132 -0.013366204692295321 0.6032771347249821 1.7484383193429545 -10.629479745451066 22.329501980915328 3.1805546814635168e-15 -9.931289170612858e-32 -3.578124016646457e-15 -91.90127539868412 -16.35166466616265 6.945871939039133 2.5968067274440086e-14 -6.025232756928373e-15 -60.833836175874694 -6.3611093629270335e-15 -1.5902773407317584e-15 -8.827812596100317e-32 86.42595099150165 -20.149664755642657 -6.524997620730768 -1.2830206285072943e-14 -2.7123023564355958e-15 51.945626151837864 0.0 0.0 0.0 0.0 0.0 0.0
16.4162577045241 41.88261964784723 8.037925371991465 -21.668494768715046 0.252134632418129 -1.1819781787766235 -2.2088613106646715 -9.124554241397098 7.868265725071814 5.652036319273865 18.572368935611035 -15.056891661443837 3.1805546814635168e-15 0.0 0.0 -0.07955743210113236 -12.939902445183824 -11.036556652183275 -3.0875595955842208 22.30003008732057 16.919132120582056 0.0 0.0 0.0 1.2797116083962205e-18 3.042066615509379 -4.8194111535721426e-17 -1.2555325322743263 -0.017486271249382793 0.704712404922139 1.90785810966308 -10.551565902847328 20.421952491267557 0.0 0.0 1.0933156717530838e-15 -91.98085326590028 -14.4192172487999 6.854601098160869 -1.0262066266948177e-14 -5.11830645779419e-15 -59.60350911611446 0.0 0.0 0.0 86.34103601872889 -19.964454252322426 -6.749538840179269 6.989235094973415e-16 -1.4284564915729125e-15 52.143695764473286 0.0 0.0 0.0 0.0 0.0 -9.93923337957349e-17
16.441542403599467 41.94712822546246 8.023359575281267 -21.80488857908631 0.2765202276249405 -1.3933519209245142 -2.49304085600552 -9.391354289828026 7.9504783522878455 6.069605821627764 18.669358317918235 -15.73471011364194 0.0 0.0 -1.987846675914698e-16 0.5499840688450911 -12.770678408990983 -10.66124358032924 -4.655732794558385 21.81942085904781 17.608928526510855 -3.1805546814635168e-15 1.5902773407317584e-15 -3.9756933518293955e-16 1.196923718448387e-17 3.133085613311457 -4.3766175873526864e-16 -1.2182203079405263 -0.01957744499420506 0.7367055719544502 1.9187319170688701 -10.324794964253508 15.549745769666103 2.896626008095417e-32 7.951386703658792e-16 -4.174478019420866e-15 -92.3720819415744 -10.475968515423546 6.566977621626305 -2.6095434423114987e-14 5.447224064963259e-15 -58.289551064843046 0.0 0.0 0.0 86.06065811761962 -19.98761561063756 -6.558563686261228 -5.719554065826169e-15 -2.7839564679084543e-15 51.90841521253566 0.0 6.361109362927033e-15 0.0 0.0 0.0 -1.987846675914698e-16
16.43209137325939 41.923015914597315 8.028804045323215 -21.94491276899231 0.28283392672296914 -1.306383849656748 -2.4875716844470115 -9.629525597800916 8.25086028610163 5.257063695176982 18.89646408342331 -15.554110090214536 0.0 0.0 1.1927080055488188e-15 0.8654400247092859 -12.269357990439328 -10.335809387210908 -5.546924765346654 21.362649094995838 17.756946054906848 0.0 0.0 0.0 6.370023805171901e-15 3.1347572662113126 -2.387751681629546e-16 -1.1369630205841519 -0.013551749835184819 0.5338333572344821 1.8410648986238438 -10.176581341276222 11.554578125855834 0.0 0.0 -9.93923337957349e-17 -92.10371847566248 -9.663065198331783 6.59000084577613 -5.5848546121485005e-15 3.045178367235916e-15 -57.20342873374059 0.0 0.0 0.0 85.9780040367793 -20.11605093674416 -6.397648273048573 2.0644630101349397e-14 1.0941706601998935e-15 51.30743454857668 0.0 0.0 0.0 -3.1805546814635164e-15 8.276074308844047e-33 -2.9817700138720465e-16
16.288405911544075 41.55643275963811 8.111577157208698 -22.086590124016023 0.30340480595024666 -1.2396565262469632 -2.3878683301296353 -9.72988312353747 8.441857494919715 4.33612025610562 19.265211565425847 -14.952061744434538 0.0 0.0 3.975693351829396e-16 0.6150617315973215 -11.85568768376852 -10.145493942348654 -5.6457955127707455 21.360211621998943 17.473252606396123 0.0 0.0 0.0 -9.540255837598778e-15 3.00253898504715 -1.7874470137332123e-16 -1.5423406283122012 -0.01193870625570886 0.34909358852821293 2.3247416152426696 -10.114887114043194 4.319572560185556 0.0 0.0 -3.975693351829396e-16 -91.29275188147554 -8.342186146161547 6.78123490364711 7.106256048716198e-15 -2.8419250338793033e-16 -57.710392866316795 0.0 0.0 0.0 86.68816571001632 -20.829111809665804 -6.653137229809486 2.944748980523491e-15 8.500345763317032e-15 51.78507012181382 0.0 0.0 0.0 0.0 0.0 2.981770013872047e-16
16.218655604745948 41.37847956089284 8.151758327103863 -21.42796449005688 0.26838968837026367 -1.105965928512314 -3.0934373751983704 -9.802917708712346 8.183324400731667 4.016384900094866 19.225619746887926 -14.779269797101481 0.0 -1.987846675914698e-15 0.0 -0.7740299897583675 -11.348074636689075 -9.879897033441575 -5.304871598078615 20.950859689909617 17.78642724921433 0.0 0.0 0.0 -3.1953561062857413e-15 3.035281786346484 5.165447986111919e-16 -2.2206324057641558 -0.008277191018199398 0.2350437884070154 2.1088338935746913 -10.798679439105994 -3.6521246430270815 0.0 9.93923337957349e-17 0.0 -90.89081841711733 -11.508529470166431 6.7232624610518394 1.4221081477154707e-14 -2.8178583306676456e-16 -55.400397551265776 0.0 0.0 0.0 87.30199399687115 -22.868879738411053 -6.720629209858224 -9.895959936877579e-15 5.794570043657021e-15 51.91773225647126 0.0 0.0 0.0 0.0 0.0 1.987846675914698e-16
16.137360779242997 41.17107295719778 8.19858996620455 -22.420640555138583 0.32511062457658185 -1.0866974127751043 -2.619734677267318 -10.122793717839375 8.277959293380338 4.541302488460596 19.231633032121454 -15.069928953312157 0.0 0.0 -3.9756933518293955e-16 -0.29660311100966313 -10.419879707600238 -8.985211872540015 -4.793412949276659 19.8119944671672 16.565584474239373 -3.1805546814635164e-15 0.0 0.0 -3.176339361478031e-15 2.8011254467788294 -2.1128601597882148e-16 -1.2967484065419206 -0.016210550094181368 0.4108011580583021 2.1104471593838556 -11.145704578718927 -6.233719554711364 0.0 0.0 1.987846675914698e-16 -89.60960807974016 -15.2665290884094 6.976569547680634 -7.108901485153063e-15 -2.0775005002655273e-16 -49.782239333598994 0.0 0.0 0.0 87.38136181776221 -23.076862291388192 -6.905489668215875 6.413453375574196e-15 1.3639318703288658e-15 52.08462877909736 0.0 0.0 0.0 4.310455369189608e-35 -4.9696166897867443e-17 9.939233379573489e-17
16.200415541911685 41.33194388706325 8.162265909038425 -21.90704358483267 0.3838561201601329 -0.40464828980275447 -3.64118314330496 -10.653915053470014 8.22753610313824 4.663841456678683 19.86848304357548 -15.394601013485556 0.0 0.0 9.93923337957349e-16 -1.0929443789180004 -9.85974629472899 -8.482228649635186 -5.133097863057428 19.165019935410633 16.772794707610178 0.0 0.0 0.0 -2.72914800149297e-18 2.793835408741271 1.1191616896030943e-16 -2.3432976627873123 0.0030933676886422384 -0.059232922307364266 2.624230532952155 -11.617524861735424 -6.154965228735905 0.0 0.0 0.0 -87.51496665649248 -17.816612323063236 7.244655243590492 0.0 0.0 -45.67888831940081 0.0 0.0 0.0 88.21227300248815 -23.565402433714205 -7.0615879235299825 7.815129546506401e-15 -1.4657082528404132e-15 52.4952230863097 0.0 0.0 0.0 0.0 0.0 9.93923337957349e-17
16.228281181141856 41.4030371892109 8.14621330603862 -22.82975817195558 0.5011955094349814 -0.07229236146911275 -2.528337405986995 -11.105100230144483 8.74329924338308 4.221774305366828 20.11434272777392 -15.751991116009801 0.0 0.0 7.951386703658792e-16 0.055385347675519364 -9.268476511320914 -7.86257779120593 -5.751834697084343 18.4714749917383 16.321465518292204 0.0 -1.5902773407317584e-15 0.0 -3.3561729824571802e-18 2.577210750085198 1.4920170891859129e-16 -0.9904728829998382 -0.004983715782462296 0.11768497453253834 1.8773345530481378 -11.760576876606375 -13.122913597872264 -4.138037154422024e-33 -1.1927080055488188e-15 -3.975693351829396e-16 -86.44595101270656 -21.490000077986387 7.766628937703693 -1.080417804377573e-14 -9.251394404844289e-15 -45.72437573186108 0.0 -3.9756933518293955e-16 0.0 88.05832834228534 -24.406577003389103 -7.128823122013789 1.7793170784419665e-14 7.0785214841081764e-15 52.91482259920682 0.0 0.0 0.0 3.4483642953516864e-34 -3.975693351829396e-16 9.93923337957349e-17
16.14660320576025 41.194653059399684 8.193265666897762 -23.17777516481326 0.562191595298375 0.7196476240240324 -1.625965611183802 -11.66620376632338 9.378556638001283 3.4661078196140167 20.99216787261702 -16.117706273914454 0.0 0.0 7.951386703658792e-16 0.6665622760080775 -8.526264844910498 -7.343080699551665 -6.191232423558098 17.71866193291057 15.777416835293826 0.0 0.0 0.0 3.182621503969631e-15 2.3842854959413566 -6.622977812142342e-17 -1.1090802605531334 0.025232245604508517 -0.5505441970355994 1.835260259509306 -12.007007589074929 -20.37720047400675 0.0 0.0 7.951386703658792e-16 -84.84172017717437 -26.063257938064094 8.409689312059015 -7.1029018658182665e-15 -3.5836502822243714e-16 -47.35347521052011 0.0 0.0 0.0 88.79824099403517 -23.251810593732355 -6.886758442298124 2.8985681127399064e-15 8.516203822716045e-15 52.407043997051645 0.0 0.0 0.0 0.0 0.0 9.93923337957349e-17
16.224479482901454 41.39333795785839 8.148403356375313 -23.29154305933956 0.4380841199205749 1.4182454509359061 -0.5988119573932503 -12.010725491440624 9.819074265513311 0.9885085501603166 22.118909256797792 -15.3436730088599 0.0 0.0 7.951386703658792e-16 0.5982687361728192 -7.552838156856516 -6.695081703093636 -6.037643269722167 16.49711086165373 14.261227812204467 0.0 0.0 0.0 3.1779880549789214e-15 2.2926348743722533 1.600869814355307e-16 -0.5067948970471635 0.03230403064071021 -0.8879739043196561 1.150845706378826 -12.300485383331994 -22.003942896285555 0.0 0.0 7.951386703658792e-16 -83.53428630285563 -24.966294720821487 8.431159799624814 -4.513730742521252e-15 5.495987190024738e-15 -48.078912356945374 0.0 -3.1805546814635168e-15 0.0 88.36844783801054 -23.963226166823247 -6.810722241997375 1.991440792744217e-14 2.8378654250348406e-15 53.09034463068312 0.0 0.0 0.0 0.0 7.765026077791789e-19 0.0
16.12982869121183 41.15185642296438 8.202928988106223 -22.66129638848964 0.4081480122590397 2.491613877900856 0.7404935441946204 -13.16728169616357 10.63807988728719 -3.2843419576152137 24.58232785902393 -14.777101408779668 3.1805546814635168e-15 1.987846675914698e-16 -3.975693351829396e-16 -0.15410939290327696 -6.723972616270078 -5.811394559862438 -5.7622264305678845 15.993909264786877 13.71410106262575 0.0 0.0 -3.975693351829396e-16 -3.1950583206393645e-15 2.245754808760516 7.087987325138502e-16 -0.6099154472212218 0.043425936300245854 -1.5765998357500155 0.5756414935838826 -12.940009782557603 -22.085072537887406 0.0 0.0 0.0 -82.32787806334747 -25.883844447569853 8.389282841620597 -8.002372602588374e-15 -1.7324417556541538e-14 -49.58565214524048 0.0 3.1805546814635176e-15 0.0 87.97104796242508 -24.772794159826667 -6.904161950758025 -2.774534370164027e-15 -8.557416881455202e-15 54.071948021038125 0.0 0.0 0.0 0.0 0.0 0.0
